<svg xmlns="http://www.w3.org/2000/svg" xmlns:svg="http://www.w3.org/2000/svg" xmlns:xlink="http://www.w3.org/1999/xlink" id="svg2" width="128" height="128" version="1.1"><defs id="defs4"><filter id="ShadowBlur" x="0" y="0" color-interpolation-filters="sRGB" filterUnits="userSpaceOnUse"><feGaussianBlur id="feGaussianBlur6" in="SourceGraphic" stdDeviation="2"/></filter><clipPath id="clipoutline2"><path id="outline2" d="m 55.8,12 0.76,0.16 c 8.84,-2.94 28.68,8.64 24.26,18.96 -1.12,1.62 -0.93,4.5 0.42,6.31 L 56.43,62.25 c -1.39,-1.39 -4.48,-1.36 -5.9,0 L 9.5,101.63 c -3.74,3.59 -0.8,6.64 0.78,8.25 l 7.36,7.36 c 1.61,1.6 5.86,3.76 8.88,0.56 L 65.24,76.99 c 1.35,-1.42 1.36,-4.47 0,-5.87 0,0 0.01,-0.02 0,-0.02 L 90.15,46.2 c 2.63,2.37 5.113827,2.574854 7.47,1.93 4.55057,-1.245432 7.08725,3.206643 9.81,6.46 l -1.23,1.21 c -1.82,1.84 -1.65,4.94 0.39,6.98 2.04,2.04 5.15,2.21 6.97,0.39 l 8.14,-8.13 c 1.82,-1.84 1.65,-4.94 -0.4,-6.97 -1.84,-1.85 -4.51,-2.09 -6.37,-0.77 -5.58,-6.26 -2.65,-7.2 -10.01,-15.35 L 91.13,17.86 C 81.2,8.12 68.3,8.13 55.8,12 z"/></clipPath><clipPath id="clipoutline1"><path id="outline1" d="m 22.42,17.2 12.96,12.95 -2.5,8.78 -8.78,2.5 -12.96,-12.96 -5.86,5.86 14.89,21.46 17.56,-3.34 61.63,65.62 c 9.44,9.51 22.17,-4.75 13.34,-12.87 L 46.85,42.92 50.86,25.16 28.72,10.89 22.42,17.2 z m 81.06,91.97 c 1.68,-1.68 4.4,-1.68 6.08,0 1.68,1.68 1.68,4.4 0,6.08 -1.68,1.67 -4.4,1.67 -6.08,0 -1.68,-1.68 -1.68,-4.4 0,-6.08 z"/></clipPath><linearGradient id="lgdg" x1="73.88" x2="84.3" y1="66.2" y2="86.68" gradientTransform="translate(-0.30267,-3.20138)" gradientUnits="userSpaceOnUse" xlink:href="#BlackTransparent"/><linearGradient id="lg55" x1="550.96" x2="655.42" y1="-137.5" y2="-241.2" gradientTransform="matrix(0.26,0,0,0.26,-106.57,101.57)" gradientUnits="userSpaceOnUse" xlink:href="#WhiteTransparent"/><linearGradient id="lg51" x1="646.24" x2="607.66" y1="-252.6" y2="-186.26" gradientTransform="matrix(0.2,0,0,0.2,-80.94,88.3)" gradientUnits="userSpaceOnUse" xlink:href="#WhiteTransparent"/><linearGradient id="lg19" x1="2482.957" x2="2375.498" y1="6145.308" y2="6037.526" gradientUnits="userSpaceOnUse" xlink:href="#BlackTransparent"/><linearGradient id="lg16" x1="577.03" x2="626.1" y1="124" y2="124" gradientTransform="matrix(0.0775,0.0775,-0.36,0.36,78.84,-44.8)" gradientUnits="userSpaceOnUse" spreadMethod="pad" xlink:href="#WhiteTransparent"/><linearGradient id="lg12" x1="146.15" x2="146.15" y1="288.57" y2="368.27" gradientTransform="matrix(0.3,0.3,-0.09,0.09,78.84,-44.8)" gradientUnits="userSpaceOnUse" xlink:href="#WhiteTransparent"/><linearGradient id="lg09" x1="258.96" x2="258.96" y1="62.74" y2="-1.72" gradientTransform="matrix(0.33,0.33,-0.0944,0.0944,9.03,-48.1)" gradientUnits="userSpaceOnUse" xlink:href="#WhiteTransparent"/><linearGradient id="lg05" x1="543.1" x2="419.88" y1="286.56" y2="286.56" gradientTransform="matrix(0.0998,0.0998,-0.28,0.28,78.84,-44.8)" gradientUnits="userSpaceOnUse" spreadMethod="pad" xlink:href="#BlackTransparent"/><linearGradient id="lg02" x1="512.7" x2="615.59" y1="254.36" y2="254.83" gradientTransform="matrix(0.0807,0.0775,-0.35,0.36,77.14,-45.89)" gradientUnits="userSpaceOnUse" xlink:href="#WhiteTransparent"/><linearGradient id="lg1999" x1="637.03" x2="638.3" y1="69.99" y2="118.3" gradientTransform="matrix(0.1,0.1,-0.22,0.2,75.6,-33.53)" gradientUnits="userSpaceOnUse" xlink:href="#WhiteTransparent"/><linearGradient id="BlackTransparent"><stop id="stop4134" offset="0" style="stop-color:#000;stop-opacity:1"/><stop id="stop4136" offset="1" style="stop-color:#000;stop-opacity:0"/></linearGradient><linearGradient id="WhiteTransparent"><stop id="stop4129" offset="0" style="stop-color:#fff;stop-opacity:1"/><stop id="stop4131" offset="1" style="stop-color:#fff;stop-opacity:0"/></linearGradient><filter id="ShadowBlur-0" x="0" y="0" color-interpolation-filters="sRGB" filterUnits="userSpaceOnUse"><feGaussianBlur id="feGaussianBlur6-6" in="SourceGraphic" stdDeviation="2"/></filter><clipPath id="clipoutline2-3"><path id="outline2-6" d="m 55.8,12 0.76,0.16 c 8.84,-2.94 28.68,8.64 24.26,18.96 -1.12,1.62 -0.93,4.5 0.42,6.31 L 56.43,62.25 c -1.39,-1.39 -4.48,-1.36 -5.9,0 L 9.5,101.63 c -3.74,3.59 -0.8,6.64 0.78,8.25 l 7.36,7.36 c 1.61,1.6 5.86,3.76 8.88,0.56 L 65.24,76.99 c 1.35,-1.42 1.36,-4.47 0,-5.87 0,0 0.01,-0.02 0,-0.02 L 90.15,46.2 c 2.63,2.37 5.113827,2.574854 7.47,1.93 4.55057,-1.245432 7.08725,3.206643 9.81,6.46 l -1.23,1.21 c -1.82,1.84 -1.65,4.94 0.39,6.98 2.04,2.04 5.15,2.21 6.97,0.39 l 8.14,-8.13 c 1.82,-1.84 1.65,-4.94 -0.4,-6.97 -1.84,-1.85 -4.51,-2.09 -6.37,-0.77 -5.58,-6.26 -2.65,-7.2 -10.01,-15.35 L 91.13,17.86 C 81.2,8.12 68.3,8.13 55.8,12 z"/></clipPath><clipPath id="clipoutline1-0"><path id="outline1-9" d="m 22.42,17.2 12.96,12.95 -2.5,8.78 -8.78,2.5 -12.96,-12.96 -5.86,5.86 14.89,21.46 17.56,-3.34 61.63,65.62 c 9.44,9.51 22.17,-4.75 13.34,-12.87 L 46.85,42.92 50.86,25.16 28.72,10.89 22.42,17.2 z m 81.06,91.97 c 1.68,-1.68 4.4,-1.68 6.08,0 1.68,1.68 1.68,4.4 0,6.08 -1.68,1.67 -4.4,1.67 -6.08,0 -1.68,-1.68 -1.68,-4.4 0,-6.08 z"/></clipPath><linearGradient id="lgdg-7" x1="73.88" x2="84.3" y1="66.2" y2="86.68" gradientTransform="translate(-0.30267,-3.20138)" gradientUnits="userSpaceOnUse" xlink:href="#BlackTransparent-6"/><linearGradient id="lg55-2" x1="550.96" x2="655.42" y1="-137.5" y2="-241.2" gradientTransform="matrix(0.26,0,0,0.26,-106.57,101.57)" gradientUnits="userSpaceOnUse" xlink:href="#WhiteTransparent-3"/><linearGradient id="lg51-1" x1="646.24" x2="607.66" y1="-252.6" y2="-186.26" gradientTransform="matrix(0.2,0,0,0.2,-80.94,88.3)" gradientUnits="userSpaceOnUse" xlink:href="#WhiteTransparent-3"/><linearGradient id="lg19-9" x1="2482.957" x2="2375.498" y1="6145.308" y2="6037.526" gradientUnits="userSpaceOnUse" xlink:href="#BlackTransparent-6"/><linearGradient id="lg16-2" x1="577.03" x2="626.1" y1="124" y2="124" gradientTransform="matrix(0.0775,0.0775,-0.36,0.36,78.84,-44.8)" gradientUnits="userSpaceOnUse" spreadMethod="pad" xlink:href="#WhiteTransparent-3"/><linearGradient id="lg12-6" x1="146.15" x2="146.15" y1="288.57" y2="368.27" gradientTransform="matrix(0.3,0.3,-0.09,0.09,78.84,-44.8)" gradientUnits="userSpaceOnUse" xlink:href="#WhiteTransparent-3"/><linearGradient id="lg09-5" x1="258.96" x2="258.96" y1="62.74" y2="-1.72" gradientTransform="matrix(0.33,0.33,-0.0944,0.0944,9.03,-48.1)" gradientUnits="userSpaceOnUse" xlink:href="#WhiteTransparent-3"/><linearGradient id="lg05-3" x1="543.1" x2="419.88" y1="286.56" y2="286.56" gradientTransform="matrix(0.0998,0.0998,-0.28,0.28,78.84,-44.8)" gradientUnits="userSpaceOnUse" spreadMethod="pad" xlink:href="#BlackTransparent-6"/><linearGradient id="lg02-5" x1="512.7" x2="615.59" y1="254.36" y2="254.83" gradientTransform="matrix(0.0807,0.0775,-0.35,0.36,77.14,-45.89)" gradientUnits="userSpaceOnUse" xlink:href="#WhiteTransparent-3"/><linearGradient id="lg1999-7" x1="637.03" x2="638.3" y1="69.99" y2="118.3" gradientTransform="matrix(0.1,0.1,-0.22,0.2,75.6,-33.53)" gradientUnits="userSpaceOnUse" xlink:href="#WhiteTransparent-3"/><linearGradient id="BlackTransparent-6"><stop id="stop4379" offset="0" style="stop-color:#000;stop-opacity:1"/><stop id="stop4381" offset="1" style="stop-color:#000;stop-opacity:0"/></linearGradient><linearGradient id="WhiteTransparent-3"><stop id="stop4374" offset="0" style="stop-color:#fff;stop-opacity:1"/><stop id="stop4376" offset="1" style="stop-color:#fff;stop-opacity:0"/></linearGradient></defs><metadata id="metadata7"/><g id="layer1" transform="translate(0,-924.36218)" style="display:inline"><path id="path2987" d="m 230,136 a 100,90 0 1 1 -200,0 100,90 0 1 1 200,0 z" transform="matrix(0.64,0,0,0.7111111,-19.2,891.65107)" style="fill:#999;fill-opacity:1;fill-rule:evenodd;stroke:none;stroke-width:.74506503;marker-start:none"><desc id="desc3943">Fill: Flat color, RGBA #999999ff Stroke: None</desc><title id="title3941">frame1</title></path><path id="path2987-3" d="m 230,136 a 100,90 0 1 1 -200,0 100,90 0 1 1 200,0 z" transform="matrix(0.625,0,0,0.69444445,-17.25,893.91773)" style="fill:#ccc;fill-opacity:1;fill-rule:evenodd;stroke:none;stroke-width:.74506503;marker-start:none;display:inline"><desc id="desc3943-6">Fill: Flat color, RGBA #ccccccff Stroke: None</desc><title id="title3941-7">frame2</title></path><path id="path2987-3-5" d="m 230,136 a 100,90 0 1 1 -200,0 100,90 0 1 1 200,0 z" transform="matrix(0.525,0,0,0.58333335,-4.25,909.02884)" style="fill:#999;fill-opacity:.6;fill-rule:evenodd;stroke:none;stroke-width:.74506503;marker-start:none;display:inline"><desc id="desc3943-6-3">Fill: Flat color, RGBA #99999999 Stroke: None</desc><title id="title3941-7-5">frame3</title></path><path id="path3759" d="m 160,81 a 105,95 0 1 1 -210,0 105,95 0 1 1 210,0 z" transform="matrix(0.48809524,0,0,0.5394737,37.15476,944.66481)" style="fill:#000;fill-opacity:1;stroke:none"><desc id="desc3952">Fill: Flat color, RGBA #000000ff Stroke: None</desc><title id="title3950">frame4</title></path></g><g id="layer2" transform="translate(0,-128)" style="display:inline"><g id="g3871"><g id="g3858"><g id="g4073" transform="matrix(0.5225,0,0,0.5225,-2.6001,122.22824)"><use id="use4403" width="1" height="1" x="0" y="0" transform="matrix(1.2,0,0,1.2,56.056536,49.515633)" xlink:href="#outline1-9" style="opacity:.25;stroke:#000;stroke-width:8;stroke-linejoin:round"/><use id="use4405" width="1" height="1" x="0" y="0" transform="matrix(1.2,0,0,1.2,56.056536,49.515633)" xlink:href="#outline1-9" style="opacity:.5;stroke:#000;stroke-width:4;stroke-linejoin:round"/><use id="use4407" width="1" height="1" x="0" y="0" transform="matrix(1.2,0,0,1.2,56.056536,49.515633)" xlink:href="#outline1-9" style="fill:#888a85"/><path id="path4411" d="m 85.252536,67.995633 16.140004,16.056 -3.996004,14.028 -13.14,3.923997 -16.28167,-16.487997 -5.67833,5.448 17.04,23.927997 22.680004,-4.968 75,79.632 c 9,9.96 24.24,-3.204 13.368,-13.92 l -80.28,-75.719997 4.632,-20.604 -23.952004,-16.836 -5.532,5.52 z M 181.21654,179.95563 c 2.004,-2.004 5.556,-2.4 7.56,-0.36 2.04,2.004 3.672,5.556 0.78,9.408 -2.4,2.4 -6.24,2.304 -8.64,-0.288 -2.016,-2.016 -1.74,-6.72 0.3,-8.76 z" style="opacity:.75;fill:#cccccf;fill-opacity:.94117647"/></g><g id="g3851"><use id="use4418" width="1" height="1" x="0" y="0" transform="matrix(0.627,0,0,0.627,26.689442,148.10016)" xlink:href="#outline2-6" style="opacity:.25;stroke:#000;stroke-width:5.5;stroke-linejoin:round;stroke-miterlimit:4;stroke-dasharray:none"/><use id="use4420" width="1" height="1" x="0" y="0" transform="matrix(0.627,0,0,0.627,26.689442,148.10016)" xlink:href="#outline2-6" style="opacity:.75;fill:#666;fill-opacity:1;stroke:#666;stroke-width:4;stroke-linejoin:round;stroke-opacity:0"/><path id="path4422" d="m 78.033845,171.71549 -16.618635,16.61863 4.982769,4.98277 16.618635,-16.61299 -4.982769,-4.98841 z" style="fill:#dcdcdc;fill-opacity:1"/><path id="path4434" d="m 62.071052,187.13091 c -0.87153,-0.87153 -2.80896,-0.85272 -3.6993,0 l -25.72581,24.69126 c -2.34498,2.25093 -0.51414,4.16328 0.48906,5.17275 l 4.61472,4.61472 c 1.00947,1.0032 3.67422,2.35752 5.56776,0.35112 l 24.27744,-25.58787 c 0.84645,-0.89034 0.85272,-2.80269 0,-3.68049 0,0 0.0063,-0.0125 0,-0.0125 l -5.52387,-5.54895 z" style="fill:#3465a4"/><use id="use4440" width="1" height="1" x="0" y="0" clip-path="url(#clipoutline2-3)" transform="matrix(0.627,0,0,0.627,26.689442,148.10016)" xlink:href="#outline2-6" style="fill:none;stroke:#fff;stroke-width:4;stroke-linejoin:round;stroke-opacity:.2"/></g></g></g></g><style id="style4154" type="text/css"/><style id="style4399" type="text/css"/></svg>